PathFileType	4	(X/Y/Z)	OpenSim_Sub01_CSStiffKnee_Accel.trc
DataRate	CameraRate	NumFrames	NumMarkers	Units	OrigDataRate	OrigDataStartFrame	OrigNumFrames
100	100	27	8	m	100	673	5381
Frame#	Time	torso_imu_offset_imu	pelvis_imu_offset_imu	tibia_r_imu_offset_imu	femur_r_imu_offset_imu	tibia_l_imu_offset_imu	femur_l_imu_offset_imu	toes_r_imu_offset_imu	toes_l_imu_offset_imu
				X1	Y1	Z1	X2	Y2	Z2	X3	Y3	Z3	X4	Y4	Z4	X5	Y5	Z5	X6	Y6	Z6	X7	Y7	Z7	X8		Y8	Z8	

673	6.72000000	9.15630988	0.34093559	4.94085086	8.53844830	-1.21919283	2.23045936	9.29435437	3.74046405	1.10180504	8.54171981	0.66818341	2.07685662	9.11967712	-2.61195629	-0.45641217	8.94652593	1.87643597	-1.28279899	8.15718707	-3.95594321	9.62174370	5.71388241	1.46646477	10.55634276
674	6.73000000	9.16690283	0.31719167	4.92815638	8.64773231	-1.26192242	2.14800089	9.74094234	3.28394507	1.20466480	8.39725442	0.45544615	2.01920977	9.26023086	-2.78633399	-0.29719826	8.98621059	1.87310490	-1.31015652	8.22241359	-4.30866815	9.34501770	5.71820567	1.41939148	10.53483510
675	6.74000000	9.13735224	0.30684241	4.94605213	8.92155573	-1.23862055	2.09042465	10.04890977	2.72070592	1.38749276	8.39234293	0.15198229	1.99500160	9.52465641	-2.84518935	-0.18023142	9.19708280	1.73452762	-1.34150667	8.57462873	-4.48229099	9.14412554	5.59156143	1.29294457	10.62349280
676	6.75000000	9.09254712	0.30584931	5.00341652	9.29109147	-1.19207285	2.05732254	10.23715938	2.22408646	1.54976407	8.46060824	-0.20845830	1.98228511	9.85090447	-2.73058972	-0.14371618	9.53185725	1.50154580	-1.36683695	9.33928812	-4.52883849	9.09112389	5.38641518	1.15448673	10.78969743
677	6.76000000	9.07480424	0.30966920	5.07847242	9.60196158	-1.17987020	2.04348880	10.47893218	2.13644999	1.51130346	8.45658322	-0.55278464	1.92498358	10.11257322	-2.49586032	-0.19893770	9.89532970	1.20439586	-1.37904906	10.57581284	-4.56527030	9.25079863	5.24165746	1.11952637	10.93757508
678	6.77000000	9.10892562	0.31645721	5.15038562	9.75583907	-1.23503340	2.04647689	10.82677742	2.60890029	1.20172228	8.31648526	-0.85106032	1.80022232	10.22537830	-2.23679595	-0.33898232	10.18975164	0.89197214	-1.38371273	12.16166462	-4.55051634	9.54523740	5.23653313	1.22790056	11.00387143
679	6.78000000	9.18013060	0.33040365	5.20131004	9.78192881	-1.33533387	2.07013517	11.05949772	3.36091542	0.79789243	8.16107276	-1.17077291	1.66019357	10.20086655	-2.14074387	-0.51710625	10.31307943	0.65510571	-1.41457946	13.57020940	-4.08902724	9.57833950	5.31470901	1.34921486	10.99993959
680	6.79000000	9.26902148	0.35542656	5.21747544	9.72534940	-1.44871320	2.11638013	10.94756868	4.06946457	0.49607411	8.12165014	-1.59325151	1.55930293	10.06987812	-2.37536937	-0.68238863	10.18170126	0.57827799	-1.50075709	14.27804780	-2.81432985	8.95576105	5.40639506	1.34585563	10.94895391
681	6.80000000	9.36382718	0.38420318	5.22301549	9.61736362	-1.51880881	2.15839145	10.55788471	4.57558934	0.34729858	8.18061881	-2.20663282	1.46994846	9.92856794	-2.77726373	-0.79642314	9.90828795	0.62184006	-1.58404807	14.35963617	-1.15527813	7.74575732	5.49225980	1.24346935	10.89191180
682	6.81000000	9.45728354	0.40280387	5.26428783	9.48105527	-1.47511771	2.15251574	10.13185706	4.81721426	0.31705011	8.23283801	-3.10239910	1.31642267	9.91122803	-2.98853557	-0.82826616	9.72086088	0.67311535	-1.55510555	14.24153690	-0.00781626	6.28888722	5.58270047	1.16374765	10.88015109
683	6.82000000	9.54379401	0.40243210	5.35883373	9.33839128	-1.28887926	2.08034609	9.83802876	4.75239091	0.39732407	8.23619332	-4.22993168	1.08059900	10.06888007	-2.82542402	-0.76397717	9.75446207	0.66143035	-1.37942245	14.22835232	0.17338131	4.80096890	5.68020875	1.17248494	10.92822693
684	6.83000000	9.62135302	0.38593524	5.45925654	9.20908234	-1.02487894	1.98029270	9.67732149	4.38128572	0.64173631	8.29172368	-5.22145008	0.87421666	10.26564748	-2.49830875	-0.62733895	9.93334511	0.61193761	-1.19095440	14.34240485	-0.06829846	3.21163751	5.76877952	1.20798425	10.96832421
685	6.84000000	9.68732077	0.35866369	5.51568868	9.11232961	-0.75852112	1.89509755	9.62189599	3.72093138	1.08558558	8.50627934	-5.70674348	0.81367277	10.35259417	-2.25985738	-0.44804253	10.15194947	0.56362497	-1.13351927	14.57146493	-0.10896925	1.43260319	5.83013157	1.19695515	10.93075383
686	6.85000000	9.72749374	0.33554369	5.54346218	9.06522547	-0.54416494	1.83285693	9.58113838	2.90365320	1.48899706	8.84674027	-5.73353940	0.88204759	10.30703242	-2.24874615	-0.26407918	10.29136545	0.56445490	-1.21743152	14.94090493	0.11215458	-0.40971950	5.84832410	1.12450779	10.84153976
687	6.86000000	9.72093230	0.33712226	5.59620173	9.08357703	-0.42362641	1.78120753	9.42786283	2.12976483	1.45096903	9.19735247	-5.59571091	0.98373811	10.18081085	-2.53575372	-0.11831859	10.22534758	0.66749883	-1.37423021	15.49802462	0.32414180	-2.06229948	5.80894187	1.01031504	10.78294751
688	6.87000000	9.66480329	0.37799341	5.69165083	9.17443512	-0.41150509	1.72317836	9.13228786	1.59448692	0.82507134	9.42878599	-5.50220200	1.01502371	10.03873197	-3.05325560	-0.04981481	9.94191739	0.88652989	-1.53113781	16.23619892	0.35400637	-3.28055479	5.72830558	0.89769864	10.79047458
689	6.88000000	9.59686820	0.45930621	5.76638801	9.32535010	-0.46203509	1.63210743	8.88302190	1.47971565	0.03753795	9.38380222	-5.46535846	0.85634030	9.97235252	-3.42677089	-0.08896750	9.68426830	1.14748889	-1.60801711	17.02784956	0.25687070	-3.84240728	5.69127205	0.88175060	10.79364454
690	6.89000000	9.55670735	0.57746096	5.75632562	9.52037227	-0.52464149	1.48100476	8.86360112	1.93006285	-0.45349394	8.92887126	-5.45827191	0.41225335	10.06244755	-3.29202325	-0.25602243	9.69726627	1.36702457	-1.53511622	17.71113139	0.16311128	-3.65464828	5.77788337	1.04916043	10.71888279
691	6.90000000	9.54597286	0.69861363	5.70387380	9.73465808	-0.58342464	1.25303150	8.90013884	2.72384388	-0.66045840	8.21420700	-5.32340715	-0.14143645	10.24111467	-2.81871781	-0.47848953	9.88660644	1.48854629	-1.36017749	17.93939516	0.66136520	-3.92303393	5.92274133	1.32755787	10.60865996
692	6.91000000	9.54415009	0.77113992	5.71394315	9.93835375	-0.64282284	0.93795397	8.61005852	3.42369462	-0.87231232	7.55772510	-4.82685732	-0.46945636	10.35322209	-2.49043729	-0.62943003	9.95867569	1.47155607	-1.20012026	17.25986364	2.60393529	-6.60840266	5.97507707	1.55101769	10.57360785
693	6.92000000	9.57469362	0.75637522	5.82281873	10.15171870	-0.68238561	0.65632482	8.06818665	3.67761436	-1.15074259	7.34483641	-3.88023693	-0.34940444	10.34475688	-2.55254812	-0.63642429	9.78355529	1.34048794	-1.14343774	15.83242752	5.42972665	-11.29921212	5.87444992	1.61213973	10.66177488
694	6.93000000	9.75980454	0.64508427	5.91186117	10.50697276	-0.62554255	0.82032561	8.37595685	3.33029093	-1.04236126	8.10671544	-2.72206008	0.18467735	10.38984498	-2.70984063	-0.55026971	9.60232044	1.26419249	-1.21320181	15.18706445	5.41637143	-12.26872663	5.76442762	1.53680694	10.77960363
695	6.94000000	10.22285745	0.43056012	5.86244568	11.13459956	-0.39016024	1.81255982	10.59295612	2.29152462	-0.11241458	10.27814915	-1.65209378	1.02140002	10.68520775	-2.62005279	-0.43621903	9.68781173	1.41380411	-1.41446404	16.76744038	-0.87592018	-3.98544308	5.79511284	1.37557635	10.83033167
696	6.95000000	10.96140742	0.09108879	5.77250421	11.99076632	0.08493374	3.30291539	13.91274349	0.86856647	1.16199529	13.09524636	-1.14582606	1.60908839	11.34215662	-2.21027800	-0.33664049	10.12257954	1.78230560	-1.65762504	19.21236273	-9.55387742	9.64209298	5.89910270	1.24755399	10.88191215
697	6.96000000	11.89833989	-0.40353875	5.86691983	12.92855256	0.84772905	4.54205527	16.43108644	-0.39642224	1.76855043	15.08960794	-1.77922189	1.13965705	12.42059023	-1.56689067	-0.28019019	10.87660120	2.25714915	-1.79757038	19.51378179	-12.42068819	19.15668580	5.88122326	1.31173969	11.09881555
698	6.97000000	12.86167929	-1.00768627	6.20139379	13.74662515	1.77287329	5.03786719	16.87925582	-0.86589656	1.26680929	15.34503560	-3.45352248	-0.49131157	13.76234716	-0.85800292	-0.25051196	11.85224659	2.63312002	-1.75714209	16.30835321	-6.00865131	19.36920721	5.66031077	1.61182011	11.50769628
699	6.98000000	13.46994317	-1.50624145	6.45047634	14.12521465	2.34862163	4.88426618	15.43815995	0.30374039	0.50777483	14.19775627	-4.56158176	-1.81076882	14.72419821	-0.42951198	-0.13121062	12.80428172	2.50128203	-1.61241234	11.95000460	2.47391109	14.77374864	5.41327341	1.93303675	11.82492057
